<?xml version="1.0" standalone="no"?>
<!DOCTYPE svg PUBLIC "-//W3C//DTD SVG 20010904//EN"
 "http://www.w3.org/TR/2001/REC-SVG-20010904/DTD/svg10.dtd">
<svg version="1.0" xmlns="http://www.w3.org/2000/svg"
 width="225.000000pt" height="225.000000pt" viewBox="0 0 225.000000 225.000000"
 preserveAspectRatio="xMidYMid meet">

<g transform="translate(0.000000,225.000000) scale(0.100000,-0.100000)"
fill="currentColor" stroke="none">
<path d="M0 1125 l0 -1125 1125 0 1125 0 0 1125 0 1125 -1125 0 -1125 0 0
-1125z m1337 335 c105 -168 272 -435 372 -593 99 -159 181 -293 181 -298 0 -5
-317 -9 -765 -9 -570 0 -765 3 -765 12 0 21 226 366 327 500 92 120 233 257
295 286 66 31 105 28 162 -10 64 -41 120 -114 170 -218 34 -71 41 -95 41 -147
0 -75 -20 -106 -91 -143 -36 -19 -68 -26 -127 -29 -163 -7 -233 59 -178 167
21 41 75 95 105 106 15 5 17 3 12 -16 -18 -58 -18 -104 -1 -121 42 -43 110
-31 138 23 23 45 16 115 -20 189 -21 44 -33 57 -70 73 -39 17 -49 18 -76 7
-65 -27 -234 -221 -272 -312 -36 -88 -4 -168 82 -205 191 -82 592 -32 667 83
24 37 20 79 -20 176 -104 263 -333 602 -391 583 -62 -20 -84 -32 -138 -73
l-60 -46 21 35 c12 19 59 97 104 173 67 112 85 136 95 125 7 -7 98 -150 202
-318z"/>
</g>
</svg>
